<svg width="123" height="34" viewBox="0 0 123 34" fill="none" xmlns="http://www.w3.org/2000/svg">
<g id="logo.svg" clip-path="url(#clip0_1_1316)">
<path id="Vector" d="M0.5 17C0.5 7.92551 7.92459 0.500916 16.9991 0.500916H105.911C114.985 0.500916 122.41 7.92551 122.41 17C122.41 26.0745 114.985 33.4991 105.911 33.4991H0.5V17Z" fill="#FF680A"/>
<g id="Group">
<path id="Vector_2" d="M49.4473 12.4169H55.222V24.2413H57.8802V12.4169H63.6549V10.1254H49.4473V12.4169Z" fill="white"/>
<path id="Vector_3" d="M28.6401 21.8581H27.5402V10.0337H24.7903V21.8581H16.2658V10.0337H13.516V22.8664C13.516 23.5996 14.1576 24.2413 14.8909 24.2413H27.4485V26.3495H30.0151V23.3247C30.0151 23.3247 30.0151 23.3247 30.0151 23.233C30.0151 23.233 30.0151 23.233 30.0151 23.1413C29.9234 22.408 29.2818 21.8581 28.6401 21.8581Z" fill="white"/>
<path id="Vector_4" d="M45.7809 10.1254C45.7809 10.1254 44.8642 9.94206 44.131 10.767L35.2398 19.8415V10.0337H32.4899V23.1413C32.4899 23.8746 33.3149 24.5163 33.8649 24.5163C34.4148 24.5163 34.5065 24.4246 34.7815 24.1496C34.8731 24.1496 34.8731 24.058 34.9648 23.9663L44.4976 14.3418V24.1496H47.2475V11.4086C47.1558 10.6754 46.5142 10.1254 45.7809 10.1254Z" fill="white"/>
<path id="Vector_5" d="M105.911 19.6582C105.728 20.0249 105.453 20.3915 105.178 20.6665C104.719 21.1248 104.261 21.4914 103.711 21.6748C103.161 21.9497 102.611 22.0414 101.878 22.0414C101.236 22.0414 100.595 21.9497 100.045 21.6748C99.4946 21.3998 99.0363 21.1248 98.578 20.6665C98.1197 20.2082 97.753 19.6582 97.5697 19.1082C97.2947 18.5583 97.203 17.9166 97.2947 17.0917C97.2947 16.3584 97.3864 15.7168 97.6614 15.1668C97.8447 14.6168 98.2113 14.0668 98.6696 13.6085C99.1279 13.1502 99.5862 12.7836 100.136 12.6003C100.686 12.3253 101.236 12.2336 101.969 12.2336C102.611 12.2336 103.253 12.3253 103.803 12.6003C104.353 12.8752 104.811 13.1502 105.269 13.6085L107.377 11.9586V11.867C106.644 11.1337 105.911 10.5837 104.994 10.2171C104.078 9.85041 103.161 9.66708 102.061 9.66708C101.053 9.66708 100.045 9.85041 99.1279 10.2171C98.2113 10.5837 97.478 11.1337 96.7447 11.867C96.0114 12.6003 95.5531 13.3335 95.1865 14.2502C94.8198 15.1668 94.6365 16.0834 94.6365 17.1833C94.6365 18.2833 94.8198 19.1999 95.1865 20.1165C95.5531 21.0331 96.1031 21.8581 96.7447 22.5914C97.478 23.3247 98.2113 23.8746 99.1279 24.2413C100.045 24.6079 100.961 24.7913 102.061 24.7913C103.069 24.7913 104.078 24.6079 104.994 24.2413C105.911 23.8746 106.644 23.3247 107.377 22.5914C107.744 22.2247 108.019 21.8581 108.294 21.4914L105.911 19.6582Z" fill="white"/>
<path id="Vector_6" d="M91.6117 10.0337L88.0369 17.7333L83.5455 10.0337H80.5206L86.662 20.4832C86.112 21.4914 85.1037 22.1331 83.9121 22.1331C83.1788 22.1331 82.5372 21.9497 81.8956 21.7664V24.2413C82.4455 24.5163 83.2705 24.6079 84.3704 24.6079C86.387 24.6079 88.1285 23.3247 89.3201 20.7581L94.5449 10.1254H91.6117V10.0337Z" fill="white"/>
<path id="Vector_7" d="M73.5543 10.0337H67.413C66.6797 10.0337 66.0381 10.6754 66.0381 11.4086V24.2413H68.7879V19.7499H73.4627C75.2959 19.7499 76.6708 19.2915 77.6791 18.3749C78.6874 17.4583 79.2374 16.2667 79.2374 14.8001C79.2374 13.3335 78.6874 12.2336 77.6791 11.317C76.7625 10.492 75.2959 10.0337 73.5543 10.0337ZM73.2794 17.3667H68.7879V12.4169H73.2794C75.3876 12.4169 76.5792 13.3335 76.5792 14.8918C76.5792 16.45 75.3876 17.3667 73.2794 17.3667Z" fill="white"/>
</g>
</g>
<defs>
<clipPath id="clip0_1_1316">
<rect width="121.91" height="32.9982" fill="white" transform="translate(0.5 0.500916)"/>
</clipPath>
</defs>
</svg>
