<svg xmlns="http://www.w3.org/2000/svg" fill="none">
  <defs id="symbols">
    <symbol viewBox="0 0 30 30" fill="none" id="orders">
      <g clipPath="url(#clip0)">
        <path
          d="M28.623 14.7657H25.6934V13.4531C25.6934 11.8429 24.5696 10.4876 23.0566 10.1118V0.878906C23.0566 0.393516 22.6631 0 22.1777 0H1.37695C0.891562 0 0.498047 0.393516 0.498047 0.878906V24.9609C0.498047 25.4463 0.891562 25.8398 1.37695 25.8398H14.9121V26.5601C14.9121 28.4569 16.4577 30 18.3574 30H26.0566C27.9564 30 29.502 28.4569 29.502 26.5601V15.6446C29.502 15.1592 29.1084 14.7657 28.623 14.7657ZM23.9355 13.4531V14.7657H20.4785V13.4531C20.4785 12.5227 21.2539 11.7656 22.207 11.7656C23.1602 11.7656 23.9355 12.5226 23.9355 13.4531ZM2.25586 24.082V1.75781H21.2988V10.1271C19.8155 10.5231 18.7207 11.8638 18.7207 13.4531V14.7656H15.791C15.3056 14.7656 14.9121 15.1591 14.9121 15.6445V24.082H2.25586ZM27.7441 26.5601C27.7441 27.4876 26.9871 28.2422 26.0566 28.2422H18.3574C17.427 28.2422 16.6699 27.4876 16.6699 26.5601V16.5235H18.7207V18.8379C18.7207 19.3233 19.1142 19.7168 19.5996 19.7168C20.085 19.7168 20.4785 19.3233 20.4785 18.8379V16.5235H23.9355V18.8379C23.9355 19.3233 24.3291 19.7168 24.8145 19.7168C25.2998 19.7168 25.6934 19.3233 25.6934 18.8379V16.5235H27.7441V26.5601Z"
          fill="currentColor" />
        <path
          d="M6.64329 3.79562L5.64438 4.86865L5.57753 4.7855C5.27343 4.40716 4.72018 4.34687 4.34184 4.65103C3.9635 4.95508 3.90327 5.50832 4.20731 5.88666L4.91044 6.76152C5.07034 6.96039 5.30864 7.08004 5.56358 7.08929C5.5743 7.08965 5.58491 7.08988 5.59557 7.08988C5.83903 7.08988 6.07223 6.98875 6.23882 6.80986L7.92977 4.99345C8.2606 4.6382 8.24067 4.08203 7.88536 3.75127C7.53028 3.4205 6.97405 3.44037 6.64329 3.79562Z"
          fill="currentColor" />
        <path
          d="M10.8105 6.18164H18.6621C19.1474 6.18164 19.541 5.78813 19.541 5.30273C19.541 4.81734 19.1474 4.42383 18.6621 4.42383H10.8105C10.3252 4.42383 9.93164 4.81734 9.93164 5.30273C9.93164 5.78813 10.3252 6.18164 10.8105 6.18164Z"
          fill="currentColor" />
        <path
          d="M6.64329 9.12765L5.64438 10.2007L5.57753 10.1175C5.27343 9.7392 4.72018 9.67896 4.34184 9.98306C3.9635 10.2872 3.90327 10.8403 4.20731 11.2187L4.91044 12.0936C5.07034 12.2924 5.30864 12.4121 5.56358 12.4213C5.5743 12.4217 5.58491 12.4219 5.59557 12.4219C5.83903 12.4219 6.07223 12.3208 6.23882 12.1419L7.92977 10.3255C8.2606 9.97023 8.24067 9.41406 7.88536 9.0833C7.53028 8.75254 6.97405 8.7724 6.64329 9.12765Z"
          fill="currentColor" />
        <path
          d="M10.8105 11.5137H15.7323C16.2177 11.5137 16.6112 11.1202 16.6112 10.6348C16.6112 10.1494 16.2177 9.75586 15.7323 9.75586H10.8105C10.3252 9.75586 9.93164 10.1494 9.93164 10.6348C9.93164 11.1202 10.3252 11.5137 10.8105 11.5137Z"
          fill="currentColor" />
        <path
          d="M6.64329 14.4597L5.64438 15.5327L5.57753 15.4496C5.27343 15.0712 4.72018 15.011 4.34184 15.3151C3.9635 15.6191 3.90327 16.1724 4.20731 16.5507L4.91044 17.4256C5.07034 17.6245 5.30864 17.7441 5.56358 17.7534C5.5743 17.7537 5.58491 17.7539 5.59557 17.7539C5.83903 17.7539 6.07223 17.6528 6.23882 17.4739L7.92977 15.6575C8.2606 15.3023 8.24067 14.7461 7.88536 14.4153C7.53028 14.0846 6.97405 14.1044 6.64329 14.4597Z"
          fill="currentColor" />
        <path
          d="M12.2752 15.0879H10.8105C10.3252 15.0879 9.93164 15.4814 9.93164 15.9668C9.93164 16.4522 10.3252 16.8457 10.8105 16.8457H12.2752C12.7606 16.8457 13.1541 16.4522 13.1541 15.9668C13.1541 15.4814 12.7606 15.0879 12.2752 15.0879Z"
          fill="currentColor" />
      </g>
      <defs>
        <clipPath id="clip0">
          <rect width="30" height="30" fill="currentColor" />
        </clipPath>
      </defs>
    </symbol>
    <symbol viewBox="0 0 40 40" fill="none" id="box">
      <path
        d="M37.334 9.42929C37.334 8.94668 37.0425 8.51184 36.5961 8.32841L19.7862 1.42276C19.4964 1.30374 19.1715 1.30374 18.8817 1.42276L2.07187 8.32841C1.62549 8.51176 1.33398 8.94668 1.33398 9.42929V31.2787C1.33398 31.7613 1.62542 32.1961 2.07187 32.3795L18.8817 39.2852C19.1684 39.4029 19.4906 39.4055 19.7848 39.2851C19.7991 39.2803 19.1627 39.5414 36.5961 32.3795C37.0425 32.1962 37.334 31.7613 37.334 31.2787V9.42929ZM19.334 15.1484L13.1402 12.6039L26.5256 6.76471L33.1337 9.47935L19.334 15.1484ZM3.71427 11.3049L9.05808 13.5002V19.6937C9.05808 20.351 9.59096 20.8839 10.2482 20.8839C10.9055 20.8839 11.4384 20.351 11.4384 19.6937V14.4781L18.1438 17.2327V36.4087L3.71427 30.4809V11.3049ZM19.334 3.81026L23.4598 5.50517L10.0743 11.3444L5.53429 9.47927L19.334 3.81026ZM20.5241 17.2327L34.9537 11.3049V30.4809L20.5241 36.4087V17.2327Z"
        fill="currentColor" />
    </symbol>
    <symbol viewBox="0 0 30 30" fill="none" id="categories">
      <path
        d="M28.6266 13.5H9.11495C8.49916 13.5 8 13.9992 8 14.6149C8 15.2307 8.49916 15.7299 9.11495 15.7299H28.6265C29.2422 15.7299 29.7414 15.2307 29.7414 14.6149C29.7414 13.9992 29.2422 13.5 28.6266 13.5Z"
        fill="currentColor" />
      <path
        d="M1.875 16.5C2.91053 16.5 3.75 15.6605 3.75 14.625C3.75 13.5895 2.91053 12.75 1.875 12.75C0.839466 12.75 0 13.5895 0 14.625C0 15.6605 0.839466 16.5 1.875 16.5Z"
        fill="currentColor" />
      <path
        d="M9.11495 6.72989H28.6265C29.2422 6.72989 29.7414 6.23073 29.7414 5.61495C29.7414 4.99916 29.2422 4.5 28.6265 4.5H9.11495C8.49916 4.5 8 4.99916 8 5.61495C8 6.23073 8.49927 6.72989 9.11495 6.72989Z"
        fill="currentColor" />
      <path
        d="M1.875 7.5C2.91053 7.5 3.75 6.66053 3.75 5.625C3.75 4.58947 2.91053 3.75 1.875 3.75C0.839466 3.75 0 4.58947 0 5.625C0 6.66053 0.839466 7.5 1.875 7.5Z"
        fill="currentColor" />
      <path
        d="M28.6266 24H9.11495C8.49916 24 8 24.4992 8 25.1149C8 25.7307 8.49916 26.2299 9.11495 26.2299H28.6265C29.2422 26.2299 29.7414 25.7307 29.7414 25.1149C29.7414 24.4992 29.2422 24 28.6266 24Z"
        fill="currentColor" />
      <path
        d="M1.875 27C2.91053 27 3.75 26.1605 3.75 25.125C3.75 24.0895 2.91053 23.25 1.875 23.25C0.839466 23.25 0 24.0895 0 25.125C0 26.1605 0.839466 27 1.875 27Z"
        fill="currentColor" />
    </symbol>
    <symbol viewBox="0 0 30 30" fill="none" id="profile">
      <path
        d="M14.7863 14.4511C16.7717 14.4511 18.4906 13.7391 19.8954 12.3342C21.2999 10.9296 22.0121 9.21089 22.0121 7.22534C22.0121 5.24048 21.3001 3.52158 19.8952 2.11647C18.4903 0.712051 16.7714 0 14.7863 0C12.8008 0 11.0821 0.712051 9.67747 2.1167C8.27283 3.52135 7.56055 5.24025 7.56055 7.22534C7.56055 9.21089 8.27283 10.9298 9.67747 12.3344C11.0826 13.7389 12.8015 14.4511 14.7863 14.4511ZM10.9208 3.35976C11.9986 2.28195 13.2629 1.75804 14.7863 1.75804C16.3096 1.75804 17.5741 2.28195 18.6522 3.35976C19.73 4.43779 20.2541 5.70236 20.2541 7.22534C20.2541 8.74878 19.73 10.0131 18.6522 11.0912C17.5741 12.1692 16.3096 12.6931 14.7863 12.6931C13.2634 12.6931 11.999 12.169 10.9208 11.0912C9.84273 10.0134 9.31859 8.74878 9.31859 7.22534C9.31859 5.70236 9.84273 4.43779 10.9208 3.35976Z"
        fill="currentColor" />
      <path
        d="M27.4294 23.0686C27.3889 22.484 27.307 21.8463 27.1864 21.173C27.0646 20.4946 26.9078 19.8532 26.7201 19.2671C26.526 18.6612 26.2626 18.0629 25.9364 17.4896C25.5984 16.8945 25.201 16.3763 24.7552 15.9499C24.2889 15.5038 23.7181 15.1451 23.058 14.8835C22.4002 14.6233 21.6712 14.4914 20.8914 14.4914C20.5852 14.4914 20.289 14.6171 19.717 14.9895C19.365 15.2191 18.9532 15.4846 18.4937 15.7782C18.1007 16.0286 17.5683 16.2632 16.9107 16.4756C16.2691 16.6832 15.6178 16.7885 14.9746 16.7885C14.3319 16.7885 13.6805 16.6832 13.0385 16.4756C12.3816 16.2634 11.849 16.0288 11.4567 15.7784C11.0014 15.4875 10.5894 15.222 10.2322 14.9893C9.66064 14.6169 9.36447 14.4912 9.05823 14.4912C8.2782 14.4912 7.54944 14.6233 6.89186 14.8837C6.23222 15.1449 5.66116 15.5036 5.19447 15.9501C4.74861 16.3767 4.35127 16.8947 4.01344 17.4896C3.68774 18.0629 3.42407 18.661 3.22998 19.2673C3.04253 19.8535 2.88574 20.4946 2.76398 21.173C2.64313 21.8454 2.56142 22.4833 2.5209 23.0692C2.48108 23.6421 2.46094 24.2384 2.46094 24.8408C2.46094 26.4068 2.95876 27.6746 3.94043 28.6096C4.90997 29.5322 6.19263 30 7.75291 30H22.1981C23.7579 30 25.0406 29.5322 26.0104 28.6096C26.9923 27.6753 27.4901 26.407 27.4901 24.8406C27.4899 24.2361 27.4695 23.6398 27.4294 23.0686ZM24.7982 27.3358C24.1576 27.9456 23.307 28.242 22.1979 28.242H7.75291C6.64352 28.242 5.793 27.9456 5.15259 27.3361C4.52431 26.738 4.21898 25.9216 4.21898 24.8408C4.21898 24.2787 4.23752 23.7236 4.2746 23.1908C4.31076 22.668 4.38469 22.0938 4.49432 21.4836C4.60258 20.8809 4.74037 20.3153 4.90425 19.8033C5.06149 19.3124 5.27596 18.8262 5.54192 18.3579C5.79575 17.9116 6.0878 17.5287 6.41006 17.2202C6.7115 16.9315 7.09145 16.6953 7.53914 16.5182C7.95319 16.3543 8.4185 16.2646 8.92365 16.2511C8.98521 16.2838 9.09485 16.3463 9.27246 16.4621C9.63387 16.6976 10.0504 16.9663 10.5109 17.2605C11.03 17.5914 11.6988 17.8903 12.4979 18.1483C13.3147 18.4124 14.1479 18.5465 14.9748 18.5465C15.8018 18.5465 16.6351 18.4124 17.4516 18.1485C18.2513 17.8901 18.9198 17.5914 19.4396 17.26C19.9109 16.9588 20.3158 16.6979 20.6772 16.4621C20.8548 16.3465 20.9644 16.2838 21.026 16.2511C21.5314 16.2646 21.9967 16.3543 22.411 16.5182C22.8584 16.6953 23.2384 16.9318 23.5398 17.2202C23.8621 17.5285 24.1541 17.9114 24.408 18.3582C24.6741 18.8262 24.8888 19.3126 25.0459 19.8031C25.21 20.3158 25.348 20.8811 25.456 21.4833C25.5654 22.0947 25.6396 22.6692 25.6757 23.191V23.1915C25.713 23.7222 25.7318 24.2771 25.732 24.8408C25.7318 25.9218 25.4265 26.738 24.7982 27.3358Z"
        fill="currentColor" />
    </symbol>
    <symbol viewBox="0 0 426.667 426.667" id="plus">
      <path
        d="M405.332 192H234.668V21.332C234.668 9.559 225.109 0 213.332 0 201.559 0 192 9.559 192 21.332V192H21.332C9.559 192 0 201.559 0 213.332c0 11.777 9.559 21.336 21.332 21.336H192v170.664c0 11.777 9.559 21.336 21.332 21.336 11.777 0 21.336-9.559 21.336-21.336V234.668h170.664c11.777 0 21.336-9.559 21.336-21.336 0-11.773-9.559-21.332-21.336-21.332zm0 0"
        fill="currentColor" />
    </symbol>
    <symbol viewBox="0 0 24 25" fill="none" id="cancel">
      <g clip-path="url(#delete-icon)">
        <path
          d="M21.9575 4.25442C22.3871 3.82487 22.3871 3.12838 21.9575 2.69879C21.528 2.26919 20.8315 2.26915 20.4019 2.6987L21.9575 4.25442ZM2.04336 21.0553C1.61377 21.4849 1.61373 22.1814 2.04328 22.611C2.47284 23.0406 3.16932 23.0406 3.59892 22.6111L2.04336 21.0553ZM20.4019 2.6987L2.04336 21.0553L3.59892 22.6111L21.9575 4.25442L20.4019 2.6987Z"
          fill="currentColor"></path>
        <path
          d="M20.3999 22.6118C20.8294 23.0414 21.5259 23.0414 21.9555 22.6118C22.3851 22.1823 22.3851 21.4858 21.9556 21.0562L20.3999 22.6118ZM3.59898 2.69764C3.16943 2.26804 2.47294 2.26801 2.04334 2.69756C1.61374 3.12712 1.61371 3.8236 2.04326 4.2532L3.59898 2.69764ZM21.9556 21.0562L3.59898 2.69764L2.04326 4.2532L20.3999 22.6118L21.9556 21.0562Z"
          fill="currentColor"></path>
      </g>
      <defs>
        <clipPath id="delete-icon">
          <rect
            width="24"
            height="24"
            fill="white"
            transform="translate(0 0.5)"></rect>
        </clipPath>
      </defs>
    </symbol>
    <symbol viewBox="0 0 23 24" fill="none" id="filters">
      <path
        d="M22.0417 18.7083H19.4896C19.0747 17.3274 17.8058 16.3125 16.2917 16.3125C14.7775 16.3125 13.5096 17.3274 13.0937 18.7083H0.958318C0.429318 18.7083 0 19.1377 0 19.6667C0 20.1957 0.429318 20.625 0.958318 20.625H13.0937C13.5086 22.0059 14.7775 23.0208 16.2916 23.0208C17.8058 23.0208 19.0737 22.0059 19.4896 20.625H22.0416C22.5716 20.625 23 20.1957 23 19.6667C23 19.1377 22.5716 18.7083 22.0417 18.7083ZM16.2917 21.1042C15.4991 21.1042 14.8542 20.4592 14.8542 19.6667C14.8542 18.8741 15.4991 18.2292 16.2917 18.2292C17.0842 18.2292 17.7292 18.8741 17.7292 19.6667C17.7292 20.4592 17.0842 21.1042 16.2917 21.1042Z"
        fill="currentColor" />
      <path
        d="M22.0417 3.37507H19.4896C19.0737 1.99412 17.8058 0.979248 16.2917 0.979248C14.7775 0.979248 13.5096 1.99412 13.0937 3.37507H0.958318C0.429318 3.37507 0 3.80438 0 4.33338C0 4.86239 0.429318 5.2917 0.958318 5.2917H13.0937C13.5096 6.67269 14.7775 7.68757 16.2917 7.68757C17.8059 7.68757 19.0737 6.67269 19.4896 5.29175H22.0417C22.5716 5.29175 23 4.86243 23 4.33343C23 3.80443 22.5716 3.37507 22.0417 3.37507ZM16.2917 5.77088C15.4991 5.77088 14.8542 5.12594 14.8542 4.33338C14.8542 3.54083 15.4991 2.89588 16.2917 2.89588C17.0842 2.89588 17.7292 3.54083 17.7292 4.33338C17.7292 5.12594 17.0842 5.77088 16.2917 5.77088Z"
        fill="currentColor" />
      <path
        d="M22.0417 11.0416H9.90631C9.49037 9.66063 8.2225 8.64575 6.70836 8.64575C5.19423 8.64575 3.92631 9.66063 3.51042 11.0416H0.958318C0.429318 11.0416 0 11.4709 0 11.9999C0 12.5289 0.429318 12.9582 0.958318 12.9582H3.51037C3.92631 14.3392 5.19418 15.354 6.70832 15.354C8.22246 15.354 9.49038 14.3392 9.90626 12.9582H22.0416C22.5716 12.9582 23 12.5289 23 11.9999C23 11.4709 22.5716 11.0416 22.0417 11.0416ZM6.70832 13.4374C5.91576 13.4374 5.27082 12.7925 5.27082 11.9999C5.27082 11.2073 5.91576 10.5624 6.70832 10.5624C7.50087 10.5624 8.14582 11.2073 8.14582 11.9999C8.14582 12.7925 7.50087 13.4374 6.70832 13.4374Z"
        fill="currentColor" />
    </symbol>
    <symbol viewBox="0 0 21 22" fill="none" id="search">
      <g clip-path="url(#search-button)">
        <path
          d="M20.8493 20.076C21.2008 20.4275 21.2008 20.9973 20.8493 21.3488C20.4978 21.7003 19.928 21.7003 19.5765 21.3488L20.8493 20.076ZM19.5765 21.3488L14.3265 16.0988L15.5993 14.826L20.8493 20.076L19.5765 21.3488Z"
          fill="currentColor" />
        <circle
          r="8.2875"
          transform="matrix(-1 0 0 1 9.1875 9.6875)"
          stroke="currentColor"
          stroke-width="1.8" />
      </g>
      <defs>
        <clipPath id="search-button">
          <rect
            width="21"
            height="21"
            fill="white"
            transform="matrix(-1 0 0 1 21 0.5)" />
        </clipPath>
      </defs>
    </symbol>
    <symbol viewBox="0 0 16 16" fill="none" id="arrow-bottom">
      <path
        d="M15 5.5L8 12.5L1 5.5"
        stroke="currentColor"
        stroke-width="1.8"
        stroke-linecap="round"
        stroke-linejoin="round"></path>
    </symbol>
    <symbol viewBox="0 0 24 24" fill="none" id="sort">
      <path
        d="M18.0303 0.96967C17.7374 0.676777 17.2626 0.676777 16.9697 0.96967L12.1967 5.74264C11.9038 6.03553 11.9038 6.51041 12.1967 6.8033C12.4896 7.09619 12.9645 7.09619 13.2574 6.8033L17.5 2.56066L21.7426 6.8033C22.0355 7.09619 22.5104 7.09619 22.8033 6.8033C23.0962 6.51041 23.0962 6.03553 22.8033 5.74264L18.0303 0.96967ZM16.75 21C16.75 21.4142 17.0858 21.75 17.5 21.75C17.9142 21.75 18.25 21.4142 18.25 21H16.75ZM16.75 1.5V21H18.25V1.5H16.75Z"
        fill="currentColor" />
      <path
        d="M5.96967 23.0303C6.26256 23.3232 6.73744 23.3232 7.03033 23.0303L11.8033 18.2574C12.0962 17.9645 12.0962 17.4896 11.8033 17.1967C11.5104 16.9038 11.0355 16.9038 10.7426 17.1967L6.5 21.4393L2.25736 17.1967C1.96447 16.9038 1.48959 16.9038 1.1967 17.1967C0.903806 17.4896 0.903806 17.9645 1.1967 18.2574L5.96967 23.0303ZM7.25 3C7.25 2.58579 6.91421 2.25 6.5 2.25C6.08579 2.25 5.75 2.58579 5.75 3H7.25ZM7.25 22.5V3H5.75V22.5H7.25Z"
        fill="currentColor" />
    </symbol>
    <symbol viewBox="0 0 21 20" fill="none" id="save">
      <path
        d="M1.25 3.125C1.25 1.81332 2.31332 0.75 3.625 0.75H14.9097C15.5536 0.75 16.1699 1.0114 16.6173 1.47432L19.0826 4.02459C19.5107 4.46745 19.75 5.05931 19.75 5.67527V16.875C19.75 18.1867 18.6867 19.25 17.375 19.25H3.625C2.31332 19.25 1.25 18.1867 1.25 16.875V3.125Z"
        stroke="currentColor"
        stroke-width="1.5"></path>
      <path
        d="M6.83838 0.75H13.5737V3.93382C13.5737 5.2455 12.5103 6.30882 11.1987 6.30882H9.21338C7.9017 6.30882 6.83838 5.2455 6.83838 3.93382V0.75Z"
        stroke="currentColor"
        stroke-width="1.5"></path>
      <path
        d="M16 19.25H5V15.625C5 14.3133 6.06332 13.25 7.375 13.25H13.625C14.9367 13.25 16 14.3133 16 15.625V19.25Z"
        stroke="currentColor"
        stroke-width="1.5"></path>
    </symbol>
    <symbol viewBox="0 0 20 20" fill="none" id="back-arrow">
      <path
        d="M7.03053 4.1665L1.50977 9.99984M1.50977 9.99984L7.03053 15.8332M1.50977 9.99984L18.7525 10.0273"
        stroke="currentColor"
        stroke-width="1.5"
        stroke-linecap="round"></path>
    </symbol>
    <symbol viewBox="0 0 45 45" fill="none" id="plus-circle">
      <circle
        cx="22.5"
        cy="22.5"
        r="21.6"
        stroke="currentColor"
        strokeWidth="1.8" />
      <g clipPath="url(#add1)">
        <path
          d="M23.4 11.6816C23.4 11.1846 22.9971 10.7816 22.5 10.7816C22.0029 10.7816 21.6 11.1846 21.6 11.6816L23.4 11.6816ZM21.6 33.3184C21.6 33.8154 22.003 34.2184 22.5 34.2184C22.9971 34.2184 23.4 33.8154 23.4 33.3184L21.6 33.3184ZM21.6 11.6816L21.6 33.3184L23.4 33.3184L23.4 11.6816L21.6 11.6816Z"
          fill="currentColor" />
        <path
          d="M33.3184 23.4C33.8154 23.4 34.2184 22.9971 34.2184 22.5C34.2184 22.0029 33.8154 21.6 33.3184 21.6V23.4ZM11.6816 21.6C11.1846 21.6 10.7816 22.0029 10.7816 22.5C10.7816 22.9971 11.1846 23.4 11.6816 23.4V21.6ZM33.3184 21.6L11.6816 21.6V23.4L33.3184 23.4V21.6Z"
          fill="currentColor" />
      </g>
      <defs>
        <clipPath id="add1">
          <rect
            width="24.4286"
            height="24.4286"
            fill="currentColor"
            transform="translate(10.2852 10.2861)" />
        </clipPath>
      </defs>
    </symbol>
    <symbol viewBox="0 0 16 24" id="drag-handle">
      <g clip-path="url(#drag-handle-clip-path)">
        <path
          d="M3.33696 0C1.7898 0 0.53125 1.25898 0.53125 2.80648C0.53125 4.35397 1.78927 5.61286 3.33696 5.61286C4.88464 5.61286 6.14267 4.35397 6.14267 2.80648C6.14267 1.25898 4.88403 0 3.33696 0Z"
          fill="currentColor" />
        <path
          d="M12.417 0C10.87 0 9.61133 1.25898 9.61133 2.80648C9.61133 4.35397 10.87 5.61286 12.417 5.61286C13.9642 5.61286 15.223 4.35397 15.223 2.80648C15.223 1.25898 13.9647 0 12.417 0Z"
          fill="currentColor" />
        <path
          d="M3.26326 14.6063C4.81033 14.6063 6.06923 13.3477 6.06923 11.7999C6.06923 10.2521 4.81033 8.99316 3.26326 8.99316C1.71619 8.99316 0.457031 10.2521 0.457031 11.7999C0.457031 13.3477 1.71619 14.6063 3.26326 14.6063Z"
          fill="currentColor" />
        <path
          d="M12.3423 14.6063C13.8891 14.6063 15.148 13.3477 15.148 11.7999C15.148 10.2521 13.8902 8.99316 12.3423 8.99316C10.7947 8.99316 9.53662 10.2521 9.53662 11.7999C9.53662 13.3477 10.7953 14.6063 12.3423 14.6063Z"
          fill="currentColor" />
        <path
          d="M3.32576 17.958C1.77869 17.958 0.519531 19.2166 0.519531 20.7645C0.519531 22.3117 1.77869 23.5709 3.32576 23.5709C4.87284 23.5709 6.13138 22.3123 6.13138 20.7645C6.13138 19.2166 4.87284 17.958 3.32576 17.958Z"
          fill="currentColor" />
        <path
          d="M12.4088 17.958C10.8616 17.958 9.60254 19.2166 9.60254 20.7645C9.60254 22.3117 10.8612 23.5709 12.4088 23.5709C13.9556 23.5709 15.2144 22.3123 15.2144 20.7645C15.2144 19.2166 13.9556 17.958 12.4088 17.958Z"
          fill="currentColor" />
      </g>
      <defs>
        <clipPath id="drag-handle-clip-path">
          <rect
            width="14.9959"
            height="24"
            fill="white"
            transform="translate(0.457031)"></rect>
        </clipPath>
      </defs>
    </symbol>
    <symbol viewBox="0 0 30 30" fill="none" id="edit">
      <path
        d="M26.5552 1.20762C24.9423 -0.402541 22.3305 -0.402541 20.7176 1.20762L19.2564 2.67702L3.70144 18.2252L3.66839 18.2585C3.66038 18.2665 3.66038 18.275 3.65186 18.275C3.63533 18.2998 3.61053 18.3244 3.59426 18.3491C3.59426 18.3574 3.58574 18.3574 3.58574 18.3657C3.56921 18.3905 3.56121 18.407 3.54442 18.4318C3.53641 18.4401 3.53641 18.4481 3.52815 18.4566C3.51988 18.4814 3.51162 18.4979 3.5031 18.5227C3.5031 18.5307 3.49509 18.5307 3.49509 18.5392L0.0439196 28.9183C-0.0573196 29.2138 0.0196429 29.541 0.242007 29.7603C0.398257 29.9145 0.609 30.0008 0.828265 30C0.917882 29.9984 1.00672 29.9845 1.09247 29.9587L11.4625 26.4989C11.4705 26.4989 11.4705 26.4989 11.479 26.4909C11.5051 26.4831 11.5302 26.472 11.5532 26.4576C11.5596 26.4568 11.5653 26.454 11.5699 26.4496C11.5945 26.433 11.6275 26.4163 11.6523 26.3997C11.6769 26.3834 11.7019 26.3587 11.7267 26.3421C11.735 26.3336 11.743 26.3336 11.743 26.3256C11.7515 26.3173 11.768 26.3093 11.7763 26.2925L28.7925 9.27473C30.4025 7.66172 30.4025 5.04965 28.7925 3.43691L26.5552 1.20762ZM11.1983 24.5584L5.45195 18.8117L19.8344 4.42796L25.5807 10.1746L11.1983 24.5584ZM4.64255 20.3393L9.66268 25.3596L2.12449 27.8696L4.64255 20.3393ZM27.6285 8.11863L26.7532 9.00223L21.0066 3.25507L21.8904 2.37173C22.8571 1.40573 24.424 1.40573 25.3909 2.37173L27.6365 4.61754C28.596 5.5887 28.5923 7.15212 27.6285 8.11863Z"
        fill="currentColor"></path>
    </symbol>
    <symbol viewBox="0 0 30 30" fill="none" id="basket">
      <path
        d="M24.8438 3.75H19.6875V2.8125C19.6875 1.2617 18.4258 0 16.875 0H13.125C11.5742 0 10.3125 1.2617 10.3125 2.8125V3.75H5.15625C3.86391 3.75 2.8125 4.80141 2.8125 6.09375V9.375C2.8125 9.89273 3.23227 10.3125 3.75 10.3125H4.26234L5.07229 27.3213C5.14383 28.8234 6.37781 30 7.88156 30H22.1184C23.6222 30 24.8562 28.8234 24.9277 27.3213L25.7377 10.3125H26.25C26.7677 10.3125 27.1875 9.89273 27.1875 9.375V6.09375C27.1875 4.80141 26.1361 3.75 24.8438 3.75ZM12.1875 2.8125C12.1875 2.29559 12.6081 1.875 13.125 1.875H16.875C17.3919 1.875 17.8125 2.29559 17.8125 2.8125V3.75H12.1875V2.8125ZM4.6875 6.09375C4.6875 5.83529 4.89779 5.625 5.15625 5.625H24.8438C25.1022 5.625 25.3125 5.83529 25.3125 6.09375V8.4375C25.0236 8.4375 5.88475 8.4375 4.6875 8.4375V6.09375ZM23.0548 27.2321C23.031 27.7328 22.6196 28.125 22.1184 28.125H7.88156C7.38029 28.125 6.96896 27.7328 6.94518 27.2321L6.13945 10.3125H23.8605L23.0548 27.2321Z"
        fill="currentColor"></path>
    </symbol>
    <symbol viewBox="0 0 682.667 682.667" id="sticker">
      <g transform="matrix(1.33333 0 0 -1.33333 0 682.667)">
        <path
          d="M0 0c17.714 27.009 30.512 57.301 36 90.456l-273.462 273.349C-350.098 345.176-436 247.378-436 129.51-436-1.663-329.619-108-198.392-108-153.82-108-112.641-95.343-77-74"
          transform="translate(456 128)"
          fill="none"
          stroke="currentColor"
          stroke-width="32"
          stroke-linecap="round"
          stroke-linejoin="round"
          stroke-miterlimit="10"
          stroke-dasharray="none" />
        <path
          d="M0 0a239.229 239.229 0 0 0-39.07-3.214c-131.227 0-237.608 106.337-237.608 237.509 0 13.304 1.112 26.347 3.216 39.055"
          transform="translate(490.993 218.65)"
          fill="none"
          stroke="currentColor"
          stroke-width="32"
          stroke-linecap="round"
          stroke-linejoin="round"
          stroke-miterlimit="10"
          stroke-dasharray="none"
          stroke-opacity="" />
        <path
          d="M0 0c-19.973-19.457-35.048-44.448-42.562-73.408-21.914-84.465 28.793-170.702 113.257-192.616 84.465-21.914 170.702 28.793 192.616 113.257"
          transform="translate(147.584 371.129)"
          fill="none"
          stroke="currentColor"
          stroke-width="32"
          stroke-linecap="round"
          stroke-linejoin="round"
          stroke-miterlimit="10"
          stroke-dasharray="none" />
      </g>
    </symbol>
    <symbol viewBox="0 0 512.016 512" id="exit">
      <path
        d="M496 240.008H293.332c-8.832 0-16-7.168-16-16s7.168-16 16-16H496c8.832 0 16 7.168 16 16s-7.168 16-16 16zm0 0"
        fill="currentColor" />
      <path
        d="M416 320.008a15.89 15.89 0 0 1-11.309-4.692c-6.25-6.253-6.25-16.386 0-22.636l68.696-68.692-68.696-68.695c-6.25-6.25-6.25-16.383 0-22.633 6.254-6.254 16.387-6.254 22.637 0l80 80c6.25 6.25 6.25 16.383 0 22.633l-80 80A15.896 15.896 0 0 1 416 320.008zM170.668 512.008c-4.566 0-8.898-.64-13.227-1.985L29.055 467.25C11.585 461.148 0 444.871 0 426.676v-384C0 19.145 19.137.008 42.668.008c4.562 0 8.895.64 13.227 1.984l128.382 42.774c17.473 6.101 29.055 22.379 29.055 40.574v384c0 23.531-19.133 42.668-42.664 42.668zm-128-480c-5.867 0-10.668 4.8-10.668 10.668v384c0 4.543 3.05 8.765 7.402 10.281l127.785 42.582c.918.297 2.114.469 3.481.469 5.867 0 10.664-4.801 10.664-10.668v-384c0-4.543-3.05-8.766-7.402-10.281L46.145 32.477c-.918-.297-2.114-.47-3.477-.47zm0 0"
        fill="currentColor" />
      <path
        d="M325.332 170.676c-8.832 0-16-7.168-16-16v-96c0-14.7-11.965-26.668-26.664-26.668h-240c-8.832 0-16-7.168-16-16s7.168-16 16-16h240c32.363 0 58.664 26.305 58.664 58.668v96c0 8.832-7.168 16-16 16zM282.668 448.008h-85.336c-8.832 0-16-7.168-16-16s7.168-16 16-16h85.336c14.7 0 26.664-11.969 26.664-26.668v-96c0-8.832 7.168-16 16-16s16 7.168 16 16v96c0 32.363-26.3 58.668-58.664 58.668zm0 0"
        fill="currentColor" />
    </symbol>
    <symbol viewBox="0 0 80 80" fill="none" id="person">
      <path
        d="M38.2014 38.5364C43.4956 38.5364 48.0793 36.6376 51.8257 32.8912C55.5708 29.1455 57.4702 24.5624 57.4702 19.2676C57.4702 13.9746 55.5714 9.39087 51.8251 5.64392C48.0787 1.8988 43.495 0 38.2014 0C32.9066 0 28.3235 1.8988 24.5778 5.64453C20.832 9.39026 18.9326 13.974 18.9326 19.2676C18.9326 24.5624 20.832 29.1461 24.5778 32.8918C28.3247 36.637 32.9084 38.5364 38.2014 38.5364ZM27.8932 8.95935C30.7673 6.08521 34.1389 4.68811 38.2014 4.68811C42.2633 4.68811 45.6355 6.08521 48.5103 8.95935C51.3844 11.8341 52.7821 15.2063 52.7821 19.2676C52.7821 23.3301 51.3844 26.7017 48.5103 29.5764C45.6355 32.4512 42.2633 33.8483 38.2014 33.8483C34.1401 33.8483 30.7686 32.4506 27.8932 29.5764C25.0184 26.7023 23.6207 23.3301 23.6207 19.2676C23.6207 15.2063 25.0184 11.8341 27.8932 8.95935Z"
        fill="currentColor" />
      <path
        d="M71.9161 61.516C71.8081 59.9572 71.5896 58.2567 71.2679 56.4611C70.9432 54.652 70.5251 52.9418 70.0247 51.3787C69.5071 49.7631 68.8046 48.1676 67.9348 46.6387C67.0333 45.0518 65.9738 43.6699 64.7848 42.5328C63.5415 41.3433 62.0193 40.3868 60.259 39.6892C58.5049 38.9952 56.5609 38.6437 54.4814 38.6437C53.6648 38.6437 52.875 38.9788 51.3497 39.9718C50.411 40.584 49.313 41.292 48.0874 42.0751C47.0394 42.7428 45.6198 43.3684 43.8662 43.9348C42.1554 44.4884 40.4183 44.7692 38.7032 44.7692C36.9894 44.7692 35.2523 44.4884 33.5403 43.9348C31.7886 43.369 30.3683 42.7434 29.3221 42.0757C28.1082 41.2999 27.0095 40.5919 26.0568 39.9712C24.5327 38.9781 23.7429 38.6431 22.9263 38.6431C20.8462 38.6431 18.9028 38.9952 17.1493 39.6898C15.3903 40.3862 13.8674 41.3427 12.6229 42.5334C11.434 43.6711 10.3744 45.0524 9.47351 46.6387C8.60498 48.1676 7.90186 49.7625 7.38428 51.3793C6.8844 52.9424 6.46631 54.652 6.1416 56.4611C5.81934 58.2543 5.60144 59.9553 5.49341 61.5178C5.38721 63.0455 5.3335 64.6355 5.3335 66.2419C5.3335 70.418 6.66101 73.7987 9.27881 76.292C11.8643 78.7523 15.2847 79.9999 19.4454 79.9999H57.9659C62.1255 79.9999 65.5459 78.7523 68.132 76.292C70.7504 73.8005 72.0779 70.4186 72.0779 66.2413C72.0773 64.6294 72.0229 63.0394 71.9161 61.516ZM64.8995 72.8954C63.1912 74.5214 60.9231 75.3118 57.9653 75.3118H19.4454C16.4871 75.3118 14.219 74.5214 12.5112 72.896C10.8358 71.3011 10.0216 69.124 10.0216 66.2419C10.0216 64.7429 10.071 63.2628 10.1699 61.8419C10.2664 60.4479 10.4635 58.9165 10.7559 57.2893C11.0446 55.6822 11.412 54.1741 11.849 52.8087C12.2683 51.4995 12.8402 50.2031 13.5494 48.9543C14.2263 47.7642 15.0051 46.743 15.8645 45.9203C16.6683 45.1506 17.6815 44.5208 18.8754 44.0483C19.9795 43.6113 21.2203 43.3721 22.5674 43.3361C22.7316 43.4233 23.0239 43.59 23.4976 43.8988C24.4613 44.5269 25.5721 45.2434 26.8002 46.0277C28.1844 46.9103 29.9679 47.7074 32.0986 48.3953C34.277 49.0996 36.4987 49.4573 38.7039 49.4573C40.9091 49.4573 43.1313 49.0996 45.3085 48.3959C47.441 47.7068 49.2239 46.9103 50.61 46.0265C51.8667 45.2233 52.9464 44.5275 53.9102 43.8988C54.3838 43.5906 54.6761 43.4233 54.8403 43.3361C56.188 43.3721 57.4288 43.6113 58.5336 44.0483C59.7268 44.5208 60.74 45.1512 61.5438 45.9203C62.4032 46.7424 63.182 47.7635 63.8589 48.955C64.5687 50.2031 65.1412 51.5001 65.5599 52.8081C65.9976 54.1753 66.3656 55.6829 66.6537 57.2887C66.9454 58.9189 67.1432 60.4509 67.2396 61.8425V61.8437C67.3391 63.2592 67.3892 64.7386 67.3898 66.2419C67.3892 69.1246 66.575 71.3011 64.8995 72.8954Z"
        fill="currentColor" />
    </symbol>
    <symbol viewBox="0 0 24 25" fill="none" id="arrow-left">
      <path
        d="M15.5 23L8.5 12.5L15.5 2"
        stroke="currentColor"
        stroke-width="2.2"
        stroke-linecap="round"
        stroke-linejoin="round" />
    </symbol>
    <symbol viewBox="0 0 24 25" fill="none" id="arrow-right">
      <path
        d="M8.5 2L15.5 12.5L8.5 23"
        stroke="currentColor"
        stroke-width="2.2"
        stroke-linecap="round"
        stroke-linejoin="round" />
    </symbol>
    <symbol viewBox="0 0 512 512" id="photo">
      <g>
        <path
          d="M432 403.383V434c0 16.569-13.431 30-30 30H45c-16.569 0-30-13.431-30-30V142c0-16.569 13.431-30 30-30h30.553"
          fill="none"
          stroke="currentColor"
          stroke-width="30"
          stroke-linecap="round"
          stroke-linejoin="round"
          stroke-miterlimit="10" />
        <path
          d="M467 400H110c-16.569 0-30-13.431-30-30V78c0-16.569 13.431-30 30-30h357c16.569 0 30 13.431 30 30v292c0 16.569-13.431 30-30 30z"
          fill="none"
          stroke="currentColor"
          stroke-width="30"
          stroke-linecap="round"
          stroke-linejoin="round"
          stroke-miterlimit="10" />
        <path
          d="m80 312 112-88 64 56 128-112 113 80"
          fill="none"
          stroke="currentColor"
          stroke-width="30"
          stroke-linecap="round"
          stroke-linejoin="round"
          stroke-miterlimit="10" />
        <circle
          cx="256"
          cy="144"
          r="32"
          fill="none"
          stroke="currentColor"
          stroke-width="30"
          stroke-linecap="round"
          stroke-linejoin="round"
          stroke-miterlimit="10" />
      </g>
    </symbol>
    <symbol viewBox="0 0 512.056 512.056" id="upload">
      <g>
        <path
          d="M426.635 188.224C402.969 93.946 307.358 36.704 213.08 60.37 139.404 78.865 85.907 142.542 80.395 218.303 28.082 226.93-7.333 276.331 1.294 328.644c7.669 46.507 47.967 80.566 95.101 80.379h80v-32h-80c-35.346 0-64-28.654-64-64 0-35.346 28.654-64 64-64 8.837 0 16-7.163 16-16-.08-79.529 64.327-144.065 143.856-144.144 68.844-.069 128.107 48.601 141.424 116.144a16 16 0 0 0 13.6 12.8c43.742 6.229 74.151 46.738 67.923 90.479-5.593 39.278-39.129 68.523-78.803 68.721h-64v32h64c61.856-.187 111.848-50.483 111.66-112.339-.156-51.49-35.4-96.241-85.42-108.46z"
          fill="currentColor" />
        <path
          d="m245.035 253.664-64 64 22.56 22.56 36.8-36.64v153.44h32v-153.44l36.64 36.64 22.56-22.56-64-64c-6.241-6.204-16.319-6.204-22.56 0z"
          fill="currentColor" />
      </g>
    </symbol>
    <symbol viewBox="0 0 40 40" id="drag-handle-secondary">
      <path
        d="M39.6565 19.1716L34.4243 13.9394C33.9668 13.4818 33.2247 13.4818 32.767 13.9394C32.3094 14.3971 32.3094 15.1391 32.767 15.5968L35.9988 18.8286H21.1714V4.00115L24.4032 7.23295C24.8607 7.69062 25.6029 7.69062 26.0605 7.23295C26.5181 6.77528 26.5181 6.03331 26.0605 5.57564L20.8281 0.343251C20.3705 -0.114417 19.6285 -0.114417 19.1708 0.343251L13.9384 5.57564C13.4808 6.03331 13.4808 6.77528 13.9384 7.23295C14.396 7.69062 15.1381 7.69062 15.5957 7.23295L18.8275 4.00115V18.8286H4.00005L7.23185 15.5968C7.68952 15.1391 7.68952 14.3971 7.23185 13.9394C6.77426 13.4818 6.03222 13.4818 5.57455 13.9394L0.342382 19.1716C0.31496 19.199 0.2891 19.2278 0.26449 19.2578C-0.11841 19.7237 -0.0796595 20.4075 0.342382 20.8293L5.57455 26.0615C6.03214 26.5191 6.77426 26.5191 7.23185 26.0615C7.68952 25.6038 7.68952 24.8618 7.23185 24.4042L4.00005 21.1724H18.8275V35.9998L15.5957 32.768C15.1382 32.3104 14.3961 32.3104 13.9384 32.768C13.4808 33.2257 13.4808 33.9677 13.9384 34.4253L19.1706 39.6575C19.6204 40.1076 20.3656 40.1205 20.8283 39.6575L26.0605 34.4253C26.5181 33.9677 26.5181 33.2257 26.0605 32.768C25.6029 32.3104 24.8608 32.3104 24.4032 32.768L21.1714 35.9998V21.1724H35.9988L32.767 24.4042C32.3094 24.8618 32.3094 25.6038 32.767 26.0615C33.2246 26.5191 33.9668 26.5191 34.4243 26.0615L39.6565 20.8293C40.1081 20.3781 40.1189 19.6337 39.6565 19.1716Z"
        fill="currentColor" />
    </symbol>
    <symbol viewBox="0 0 18 18" fill="none" id="color-option">
      <circle cx="4.32008" cy="4.32008" r="3.24" fill="#EF001D" />
      <ellipse cx="14.242" cy="4.24" rx="3.24" ry="3.24" fill="#FFBE90" />
      <ellipse cx="4.32008" cy="13.6795" rx="3.24" ry="3.24" fill="#1EAF62" />
      <circle cx="13.6795" cy="13.6795" r="3.24" fill="#0F5559" />
    </symbol>
    <symbol viewBox="0 0 24 24" id="images-link">
      <path
        d="M22 9.25a.76.76 0 0 0-.75.75v6l-4.18-4.78a2.84 2.84 0 0 0-4.14 0l-2.87 3.28-.94-1.14a2.76 2.76 0 0 0-4.24 0l-2.13 2.57V6A3.26 3.26 0 0 1 6 2.75h8a.75.75 0 0 0 0-1.5H6A4.75 4.75 0 0 0 1.25 6v12a.09.09 0 0 0 0 .05A4.75 4.75 0 0 0 6 22.75h12a4.75 4.75 0 0 0 4.74-4.68V10a.76.76 0 0 0-.74-.75Zm-4 12H6a3.25 3.25 0 0 1-3.23-3L6 14.32a1.29 1.29 0 0 1 1.92 0l1.51 1.82a.74.74 0 0 0 .57.27.86.86 0 0 0 .57-.26l3.44-3.94a1.31 1.31 0 0 1 1.9 0l5.27 6A3.24 3.24 0 0 1 18 21.25Z"
        fill="currentColor" />
      <path
        d="M4.25 7A2.75 2.75 0 1 0 7 4.25 2.75 2.75 0 0 0 4.25 7Zm4 0A1.25 1.25 0 1 1 7 5.75 1.25 1.25 0 0 1 8.25 7ZM16 5.75h2.25V8a.75.75 0 0 0 1.5 0V5.75H22a.75.75 0 0 0 0-1.5h-2.25V2a.75.75 0 0 0-1.5 0v2.25H16a.75.75 0 0 0 0 1.5Z"
        fill="currentColor" />
    </symbol>
    <symbol viewBox="0 0 16 16" id="select-list">
      <g
        transform="matrix(1.1430017543859645,0,0,1.1430017543859645,-1.1440140350877162,-1.1440140350877162)">
        <g>
          <path
            fill-rule="evenodd"
            d="M2.75 2.5a.75.75 0 0 0-.75.75v2.5c0 .414.336.75.75.75h2.5A.75.75 0 0 0 6 5.75v-2.5a.75.75 0 0 0-.75-.75zM1 3.25c0-.967.783-1.75 1.75-1.75h2.5C6.217 1.5 7 2.283 7 3.25v2.5A1.75 1.75 0 0 1 5.25 7.5h-2.5A1.75 1.75 0 0 1 1 5.75zM2.75 9.5a.75.75 0 0 0-.75.75v2.5c0 .414.336.75.75.75h2.5a.75.75 0 0 0 .75-.75v-2.5a.75.75 0 0 0-.75-.75zM1 10.25c0-.967.783-1.75 1.75-1.75h2.5c.967 0 1.75.783 1.75 1.75v2.5a1.75 1.75 0 0 1-1.75 1.75h-2.5A1.75 1.75 0 0 1 1 12.75z"
            clip-rule="evenodd"
            fill="currentColor" />
          <path
            d="M3 4a.5.5 0 0 1 .5-.5h1A.5.5 0 0 1 5 4v1a.5.5 0 0 1-.5.5h-1A.5.5 0 0 1 3 5z"
            fill="currentColor" />
          <g fill-rule="evenodd" clip-rule="evenodd">
            <path
              d="M8.5 3.5A.5.5 0 0 1 9 3h5.5a.5.5 0 0 1 0 1H9a.5.5 0 0 1-.5-.5zM8.5 5.5A.5.5 0 0 1 9 5h5.5a.5.5 0 0 1 0 1H9a.5.5 0 0 1-.5-.5zM8.5 10.5A.5.5 0 0 1 9 10h5.5a.5.5 0 0 1 0 1H9a.5.5 0 0 1-.5-.5zM8.5 12.5A.5.5 0 0 1 9 12h5.5a.5.5 0 0 1 0 1H9a.5.5 0 0 1-.5-.5z"
              fill="currentColor" />
          </g>
        </g>
      </g>
    </symbol>
    <symbol viewBox="0 0 42 42" id="customers">
      <path
        d="M 8.75 12.827 C 9.965 12.827 10.999 12.394 11.865 11.542 C 12.717 10.69 13.15 9.642 13.15 8.427 C 13.15 7.211 12.717 6.178 11.865 5.312 C 11.013 4.46 9.965 4.027 8.75 4.027 C 7.535 4.027 6.502 4.46 5.635 5.312 C 4.783 6.164 4.35 7.211 4.35 8.427 C 4.35 9.642 4.783 10.676 5.635 11.542 C 6.502 12.394 7.535 12.827 8.75 12.827"
        fill="none"
        stroke-width="1.5px"
        stroke="currentColor" />
      <path
        d="M 33.15 12.827 C 34.365 12.827 35.399 12.394 36.265 11.542 C 37.117 10.69 37.55 9.642 37.55 8.427 C 37.55 7.212 37.117 6.178 36.265 5.312 C 35.413 4.46 34.365 4.027 33.15 4.027 C 31.935 4.027 30.901 4.46 30.035 5.312 C 29.169 6.164 28.75 7.212 28.75 8.427 C 28.75 9.642 29.183 10.676 30.035 11.542 C 30.901 12.394 31.935 12.827 33.15 12.827 Z"
        stroke-width="1.5px"
        stroke="currentColor"
        fill="none" />
      <path
        d="M 38.077 14.127 C 37.996 14.127 37.705 14.249 37.22 14.478 C 36.735 14.708 36.072 14.951 35.28 15.181 C 34.488 15.424 33.696 15.532 32.92 15.532 C 32.031 15.532 31.158 15.411 30.269 15.154 C 30.334 15.56 30.366 15.924 30.366 16.249 C 30.366 17.789 29.833 19.208 28.75 20.505 C 30.9 20.56 32.646 21.276 34.02 22.627 L 36.687 22.627 C 37.77 22.627 38.691 22.397 39.435 21.951 C 40.178 21.505 40.55 20.843 40.55 19.978 C 40.534 16.087 39.71 14.127 38.077 14.127 Z"
        fill="none"
        stroke-width="1.5px"
        stroke="currentColor" />
      <path
        d="M 20.975 22.424 C 22.961 22.424 24.68 21.712 26.084 20.307 C 27.489 18.903 28.201 17.184 28.201 15.198 C 28.201 13.213 27.489 11.495 26.084 10.089 C 24.679 8.685 22.96 7.973 20.975 7.973 C 18.99 7.973 17.271 8.685 15.866 10.09 C 14.462 11.494 13.75 13.213 13.75 15.198 C 13.75 17.184 14.462 18.903 15.866 20.307 C 17.272 21.712 18.991 22.424 20.975 22.424 Z M 17.11 11.333 C 18.188 10.255 19.452 9.731 20.975 9.731 C 22.499 9.731 23.763 10.255 24.841 11.333 C 25.919 12.411 26.443 13.675 26.443 15.198 C 26.443 16.722 25.919 17.986 24.841 19.064 C 23.763 20.142 22.499 20.666 20.975 20.666 C 19.452 20.666 18.188 20.142 17.11 19.064 C 16.032 17.986 15.508 16.722 15.508 15.198 C 15.508 13.675 16.032 12.411 17.11 11.333 Z"
        fill="currentColor" />
      <path
        d="M 33.618 31.042 C 33.578 30.457 33.496 29.819 33.375 29.146 C 33.254 28.468 33.097 27.826 32.909 27.24 C 32.715 26.634 32.452 26.036 32.125 25.463 C 31.787 24.868 31.39 24.349 30.944 23.923 C 30.478 23.477 29.907 23.118 29.247 22.857 C 28.589 22.596 27.86 22.464 27.08 22.464 C 26.774 22.464 26.478 22.59 25.906 22.963 C 25.554 23.192 25.142 23.458 24.683 23.751 C 24.29 24.002 23.757 24.236 23.1 24.449 C 22.458 24.656 21.807 24.762 21.164 24.762 C 20.521 24.762 19.87 24.656 19.228 24.449 C 18.571 24.236 18.038 24.002 17.646 23.751 C 17.19 23.461 16.778 23.195 16.421 22.962 C 15.85 22.59 15.553 22.464 15.247 22.464 C 14.467 22.464 13.738 22.596 13.081 22.857 C 12.421 23.118 11.85 23.477 11.383 23.923 C 10.938 24.35 10.54 24.868 10.202 25.463 C 9.877 26.036 9.613 26.634 9.419 27.24 C 9.232 27.827 9.075 28.468 8.953 29.146 C 8.832 29.818 8.75 30.456 8.71 31.042 C 8.67 31.615 8.65 32.211 8.65 32.814 C 8.65 34.38 9.148 35.648 10.129 36.583 C 11.099 37.505 12.382 37.973 13.942 37.973 L 28.387 37.973 C 29.947 37.973 31.23 37.505 32.199 36.583 C 33.181 35.648 33.679 34.38 33.679 32.814 C 33.679 32.209 33.659 31.613 33.618 31.042 Z M 30.987 35.309 C 30.347 35.919 29.496 36.215 28.387 36.215 L 13.942 36.215 C 12.833 36.215 11.982 35.919 11.342 35.309 C 10.713 34.711 10.408 33.895 10.408 32.814 C 10.408 32.252 10.427 31.697 10.464 31.164 C 10.5 30.641 10.574 30.067 10.683 29.457 C 10.792 28.854 10.929 28.288 11.093 27.776 C 11.25 27.285 11.465 26.799 11.731 26.331 C 11.985 25.885 12.277 25.502 12.599 25.193 C 12.901 24.905 13.28 24.668 13.728 24.491 C 14.142 24.327 14.608 24.238 15.113 24.224 C 15.174 24.257 15.284 24.319 15.461 24.435 C 15.823 24.671 16.239 24.939 16.7 25.234 C 17.219 25.564 17.888 25.863 18.687 26.121 C 19.504 26.385 20.337 26.52 21.164 26.52 C 21.991 26.52 22.824 26.385 23.641 26.122 C 24.44 25.863 25.109 25.564 25.629 25.233 C 26.1 24.932 26.505 24.671 26.866 24.435 C 27.044 24.32 27.153 24.257 27.215 24.224 C 27.72 24.238 28.186 24.327 28.6 24.491 C 29.047 24.668 29.427 24.905 29.729 25.193 C 30.051 25.502 30.343 25.884 30.597 26.331 C 30.863 26.799 31.078 27.286 31.235 27.776 C 31.399 28.289 31.537 28.854 31.645 29.456 C 31.754 30.068 31.829 30.642 31.865 31.164 L 31.865 31.165 C 31.902 31.695 31.921 32.25 31.921 32.814 C 31.921 33.895 31.616 34.711 30.987 35.309 Z"
        fill="currentColor" />
      <path
        d="M 13.26 20.518 C 12.191 19.218 11.656 17.796 11.656 16.253 C 11.656 15.928 11.689 15.562 11.753 15.156 C 10.879 15.413 9.988 15.535 9.097 15.535 C 8.319 15.535 7.525 15.413 6.731 15.183 C 5.937 14.953 5.289 14.709 4.787 14.479 C 4.285 14.249 3.993 14.127 3.929 14.127 C 2.276 14.127 1.45 16.09 1.45 20.003 C 1.45 20.87 1.823 21.52 2.568 21.98 C 3.313 22.427 4.22 22.657 5.322 22.657 L 7.995 22.657 C 9.356 21.29 11.105 20.572 13.26 20.518 Z"
        fill="none"
        stroke-width="1.5px"
        stroke="currentColor" />
    </symbol>
  </defs>
</svg>
