<svg
  xmlns="http://www.w3.org/2000/svg"
  width="8"
  height="8"
  viewBox="0 0 8 8"
  fill="none">
  <g clip-path="url(#clip0)">
    <path
      d="M7.5889 1.52255C7.8818 1.22967 7.88183 0.754794 7.58895 0.461885C7.29607 0.168977 6.8212 0.168952 6.52829 0.46183L7.5889 1.52255ZM0.408775 6.58071C0.115867 6.87359 0.115843 7.34846 0.40872 7.64137C0.701598 7.93428 1.17647 7.9343 1.46938 7.64142L0.408775 6.58071ZM6.52829 0.46183L0.408775 6.58071L1.46938 7.64142L7.5889 1.52255L6.52829 0.46183Z"
      fill="#050A0C" />
    <path
      d="M6.52824 7.64163C6.82111 7.93454 7.29599 7.93456 7.5889 7.64169C7.8818 7.34881 7.88183 6.87393 7.58895 6.58103L6.52824 7.64163ZM1.47008 0.461504C1.1772 0.168596 0.702329 0.16857 0.40942 0.461448C0.116511 0.754326 0.116486 1.2292 0.409363 1.52211L1.47008 0.461504ZM7.58895 6.58103L1.47008 0.461504L0.409363 1.52211L6.52824 7.64163L7.58895 6.58103Z"
      fill="#050A0C" />
  </g>
  <defs>
    <clipPath id="clip0">
      <rect width="8" height="8" fill="white" />
    </clipPath>
  </defs>
</svg>
